<?xml version="1.0" encoding="utf-8"?>
<!-- Generator: Adobe Illustrator 23.0.1, SVG Export Plug-In . SVG Version: 6.00 Build 0)  -->
<svg version="1.1" id="Capa_1" xmlns="http://www.w3.org/2000/svg" xmlns:xlink="http://www.w3.org/1999/xlink" x="0px" y="0px"
	 viewBox="0 0 512 512" style="enable-background:new 0 0 512 512;" xml:space="preserve">
<style type="text/css">
	.st0{fill:#F2F2F2;}
	.st1{fill:#006BC0;}
	.st2{fill:#0096DC;}
	.st3{fill:#FFFFFF;}
	.st4{fill:#222123;}
</style>
<path class="st0" d="M512,256c0,82.32-38.86,155.56-99.23,202.4C369.45,492,315.07,512,256,512s-113.46-20-156.77-53.6
	C38.86,411.56,0,338.32,0,256C0,114.61,114.61,0,256,0S512,114.61,512,256z"/>
<path class="st1" d="M441.99,119.47L412.77,458.4C369.45,492,315.07,512,256,512s-113.46-20-156.77-53.6L70.01,119.47H441.99z"/>
<polygon class="st2" points="256,151.34 256,505.3 378.27,470.78 405.55,151.34 "/>
<polygon class="st3" points="364.04,289.79 275.85,289.79 368,242.89 371.98,195.75 140.01,195.75 144.07,243.81 237.19,243.81 
	147.85,288.48 152,337.72 152,337.72 311.38,337.72 306.15,396.37 256,409.95 203.75,395.32 202.45,358.75 153.78,358.75 
	159.87,430.85 256,458.02 352.13,430.85 364.04,289.78 "/>
<g>
	<polygon class="st4" points="165.35,67.22 165.35,33.79 213.42,33.79 213.42,15.68 147.94,15.68 147.94,85.33 213.42,85.33 
		213.42,67.22 	"/>
	<polygon class="st4" points="241.54,42.93 241.54,34.57 289.35,34.57 289.35,33.79 289.35,15.68 223.87,15.68 223.87,58.86 
		270.8,58.86 270.8,67.22 223.87,67.22 223.87,85.33 289.35,85.33 289.35,67.22 289.35,42.93 	"/>
	<polygon class="st4" points="316.25,42.93 316.25,34.57 364.06,34.57 364.06,33.79 364.06,15.68 298.58,15.68 298.58,58.86 
		345.51,58.86 345.51,67.22 298.58,67.22 298.58,85.33 364.06,85.33 364.06,67.22 364.06,42.93 	"/>
</g>
</svg>
