<?xml version="1.0" encoding="utf-8"?>
<!-- Generator: Adobe Illustrator 23.0.1, SVG Export Plug-In . SVG Version: 6.00 Build 0)  -->
<svg version="1.1" id="Capa_1" xmlns="http://www.w3.org/2000/svg" xmlns:xlink="http://www.w3.org/1999/xlink" x="0px" y="0px"
	 viewBox="0 0 512 512" style="enable-background:new 0 0 512 512;" xml:space="preserve">
<style type="text/css">
	.st0{fill:#F2F2F2;}
	.st1{fill:#E64C18;}
	.st2{fill:#F36518;}
	.st3{fill:#FFFFFF;}
</style>
<path class="st0" d="M512,256c0,82.32-38.86,155.56-99.23,202.4C369.45,492,315.07,512,256,512c-58.54,0-112.47-19.64-155.6-52.71
	C39.36,412.52,0,338.85,0,256C0,114.61,114.61,0,256,0S512,114.61,512,256z"/>
<path class="st1" d="M441.99,119.47L412.77,458.4C369.45,492,315.07,512,256,512c-58.54,0-112.47-19.64-155.6-52.71l-29.3-339.82
	H441.99z"/>
<polygon class="st2" points="256.55,151.25 256.55,504.17 378.46,469.75 405.65,151.25 "/>
<polygon class="st3" points="140.9,195.53 152.86,337.09 311.76,337.09 306.56,395.57 256.55,409.11 204.46,394.52 203.15,358.06 
	154.63,358.06 160.71,429.94 256.55,457.03 352.39,429.94 364.27,289.3 196.93,289.3 192.77,243.46 192.77,243.45 368.23,242.54 
	372.19,195.53 "/>
<polygon points="151.16,16.8 151.16,41.12 127.92,41.12 127.92,16.8 106.3,16.8 106.3,86.51 127.92,86.51 127.92,63.81 
	151.16,63.81 151.16,86.51 172.78,86.51 172.78,16.8 "/>
<polygon points="249.52,16.8 183.04,16.8 183.04,41.12 204.66,41.12 204.66,87.06 227.9,87.06 227.9,41.12 249.52,41.12 "/>
<polygon points="373.28,64.89 373.28,17.34 350.04,17.34 350.04,64.89 350.04,87.06 373.28,87.06 406.79,87.06 406.79,64.89 "/>
<polygon points="314.91,17.34 298.7,42.2 282.49,17.34 259.25,17.34 259.25,87.06 282.49,87.06 282.49,52.47 298.7,77.33 
	314.91,52.47 314.91,87.06 338.15,87.06 338.15,17.34 "/>
</svg>
