<?xml version="1.0" encoding="utf-8"?>
<!-- Generator: Adobe Illustrator 23.0.1, SVG Export Plug-In . SVG Version: 6.00 Build 0)  -->
<svg version="1.1" id="Capa_1" xmlns="http://www.w3.org/2000/svg" xmlns:xlink="http://www.w3.org/1999/xlink" x="0px" y="0px"
	 viewBox="0 0 512 512" style="enable-background:new 0 0 512 512;" xml:space="preserve">
<style type="text/css">
	.st0{fill:#F2F2F2;}
	.st1{fill:#E6A329;}
	.st2{fill:#F1BF22;}
	.st3{fill:#FFFFFF;}
	.st4{fill:#EBEBEB;}
	.st5{fill:#231F20;}
</style>
<path class="st0" d="M512,256c0,82.32-38.86,155.56-99.23,202.4C369.45,492,315.07,512,256,512s-113.46-20-156.77-53.6
	C38.86,411.56,0,338.32,0,256C0,114.61,114.61,0,256,0S512,114.61,512,256z"/>
<g>
	<path class="st1" d="M428.36,121.83H83.64l32.32,350.45L255.98,512l140.03-39.71L428.36,121.83z"/>
	<path class="st2" d="M255.98,150.38V482.3l113.45-32.14l27.6-299.77H255.98z"/>
	<path class="st3" d="M346.24,193.38H171.8l-12.15,131.21l0.25-0.82h148.2l-4.83,55.51l-47.28,13.61L208,379.08l-2.87-33.6h-43.56
		l6.21,67.14l88.2,25.04l88.24-25.04l12.15-131.78H199.09l2.02-43.91h109.13l1.63,25.16h43.95L346.24,193.38z"/>
	<path class="st4" d="M256.02,193.38H171.8l-12.15,131.21l0.25-0.82h96.12v-42.8h-50.8l2.02-43.91h48.78V193.38z M205.22,345.48
		h-43.65l6.21,67.1l88.2,25v-44.64L208,379.08L205.22,345.48z"/>
</g>
<path class="st5" d="M220.3,61.88h-32.67v23.45h56.04V15.68H220.3V61.88z M324.36,16.05h-56.95v24.38
	c7.6,7.6,11.57,11.26,22.77,22.28h-22.77v22.24h56.95V62.75l-22.77-22.28h22.77V16.05z"/>
</svg>
