<?xml version="1.0" encoding="utf-8"?>
<!-- Generator: Adobe Illustrator 23.0.1, SVG Export Plug-In . SVG Version: 6.00 Build 0)  -->
<svg version="1.1" id="Layer_1" xmlns="http://www.w3.org/2000/svg" xmlns:xlink="http://www.w3.org/1999/xlink" x="0px" y="0px"
	 viewBox="0 0 124.6 147.2" style="enable-background:new 0 0 124.6 147.2;" xml:space="preserve">
<style type="text/css">
	.st0{clip-path:url(#SVGID_2_);fill:url(#SVGID_3_);}
	.st1{clip-path:url(#SVGID_2_);fill:url(#SVGID_4_);}
	.st2{clip-path:url(#SVGID_2_);fill:url(#SVGID_5_);}
	.st3{clip-path:url(#SVGID_2_);fill:#561210;}
	.st4{clip-path:url(#SVGID_2_);fill:#1F0F10;}
	.st5{clip-path:url(#SVGID_2_);fill:url(#SVGID_6_);}
	.st6{clip-path:url(#SVGID_2_);fill:url(#SVGID_7_);}
	.st7{clip-path:url(#SVGID_2_);fill:#381413;}
	.st8{clip-path:url(#SVGID_2_);fill:url(#SVGID_8_);}
	.st9{clip-path:url(#SVGID_2_);fill:url(#SVGID_9_);}
</style>
<g>
	<g>
		
			<image style="overflow:visible;" width="948" height="314" xlink:href="1F2BC20F.png"  transform="matrix(0.1949 0 0 0.1949 -30.1041 109.7612)">
		</image>
	</g>
	<g>
		<defs>
			<polygon id="SVGID_1_" points="124.6,117.7 62.1,0 0,117.4 13.5,137.7 30,140.3 35.5,117.8 35.5,117.8 82.4,117.8 86.4,140.3 
				106.8,138 124.6,117.7 124.6,117.7 			"/>
		</defs>
		<clipPath id="SVGID_2_">
			<use xlink:href="#SVGID_1_"  style="overflow:visible;"/>
		</clipPath>
		<linearGradient id="SVGID_3_" gradientUnits="userSpaceOnUse" x1="90.3435" y1="144.3381" x2="102.5415" y2="119.6036">
			<stop  offset="0" style="stop-color:#9A1D21"/>
			<stop  offset="0.1837" style="stop-color:#AF2424"/>
			<stop  offset="0.4083" style="stop-color:#C32B27"/>
			<stop  offset="0.5614" style="stop-color:#CA2D28"/>
		</linearGradient>
		<polygon class="st0" points="82.4,117.8 86.4,140.3 106.8,138 124.5,117.8 		"/>
		<linearGradient id="SVGID_4_" gradientUnits="userSpaceOnUse" x1="114.8808" y1="117.7613" x2="114.8808" y2="141.3403">
			<stop  offset="0" style="stop-color:#A41E22"/>
			<stop  offset="1" style="stop-color:#A41E23"/>
		</linearGradient>
		<polygon class="st1" points="125.8,117.8 104,117.8 106.9,141.3 114.9,141.3 		"/>
		<linearGradient id="SVGID_5_" gradientUnits="userSpaceOnUse" x1="17.7178" y1="109.1632" x2="17.7178" y2="140.2767">
			<stop  offset="7.389160e-02" style="stop-color:#B32626"/>
			<stop  offset="0.3635" style="stop-color:#AF2525"/>
			<stop  offset="0.6751" style="stop-color:#A22022"/>
			<stop  offset="0.996" style="stop-color:#8C191C"/>
			<stop  offset="1" style="stop-color:#8C191C"/>
		</linearGradient>
		<polygon class="st2" points="35.4,109.2 4.4,109.2 0,117.4 13.5,137.7 30,140.3 35.4,117.9 		"/>
		<polygon class="st3" points="11.8,117.9 -4.5,117.9 12.9,139 13.6,137.9 		"/>
		<polygon class="st4" points="11.8,117.9 9.8,96.4 -1.9,108.6 -3.5,117.9 		"/>
		<linearGradient id="SVGID_6_" gradientUnits="userSpaceOnUse" x1="56.8829" y1="76.0941" x2="56.8829" y2="12.5618">
			<stop  offset="0" style="stop-color:#7E1419"/>
			<stop  offset="0.2057" style="stop-color:#971C1F"/>
			<stop  offset="0.4392" style="stop-color:#AD2323"/>
			<stop  offset="0.666" style="stop-color:#BA2726"/>
			<stop  offset="0.8768" style="stop-color:#BE2827"/>
			<stop  offset="1" style="stop-color:#AB1F24"/>
		</linearGradient>
		<polygon class="st5" points="103.8,78.3 62.1,0 10,98.5 		"/>
		<linearGradient id="SVGID_7_" gradientUnits="userSpaceOnUse" x1="10.0259" y1="91.028" x2="103.9777" y2="91.028">
			<stop  offset="0" style="stop-color:#4B1614"/>
			<stop  offset="0.1479" style="stop-color:#491514"/>
			<stop  offset="1" style="stop-color:#421312"/>
		</linearGradient>
		<polygon class="st6" points="10,98.5 96.3,64.3 104,117.8 11.8,117.8 		"/>
		<polygon class="st7" points="96.1,63.9 104,117.8 126.3,117.8 115.8,71.4 		"/>
		<linearGradient id="SVGID_8_" gradientUnits="userSpaceOnUse" x1="58.5791" y1="0" x2="58.5791" y2="85.7357">
			<stop  offset="0" style="stop-color:#DE462F"/>
			<stop  offset="0.4139" style="stop-color:#DA422E"/>
			<stop  offset="0.8586" style="stop-color:#CD352A"/>
			<stop  offset="1" style="stop-color:#C72F28"/>
		</linearGradient>
		<polygon class="st8" points="42.1,85.7 75,72.7 62.1,0 		"/>
		<linearGradient id="SVGID_9_" gradientUnits="userSpaceOnUse" x1="58.9132" y1="117.7613" x2="58.9132" y2="72.7283">
			<stop  offset="0" style="stop-color:#771315"/>
			<stop  offset="0.5212" style="stop-color:#85171A"/>
			<stop  offset="1" style="stop-color:#8C191C"/>
		</linearGradient>
		<polygon class="st9" points="75,72.7 82.4,117.8 35.4,117.8 42.1,85.7 		"/>
	</g>
</g>
</svg>
